<?xml version="1.0" standalone="no"?>
<!DOCTYPE svg PUBLIC "-//W3C//DTD SVG 20010904//EN"
 "http://www.w3.org/TR/2001/REC-SVG-20010904/DTD/svg10.dtd">
<svg version="1.0" xmlns="http://www.w3.org/2000/svg"
 width="500.000000pt" height="500.000000pt" viewBox="0 0 500.000000 500.000000"
 preserveAspectRatio="xMidYMid meet">
<metadata>
Created by potrace 1.11, written by Peter Selinger 2001-2013
</metadata>
<g transform="translate(0.000000,500.000000) scale(0.100000,-0.100000)"
fill="#000000" stroke="none">
<path d="M0 2500 l0 -2500 2500 0 2500 0 0 2500 0 2500 -2500 0 -2500 0 0
-2500z m4530 2460 c0 -5 -2 -10 -4 -10 -3 0 -8 5 -11 10 -3 6 -1 10 4 10 6 0
11 -4 11 -10z m-3775 -945 c9 -44 21 -88 26 -97 5 -10 9 -26 9 -37 0 -59 110
-299 182 -396 143 -193 303 -290 588 -355 52 -12 115 -30 140 -41 114 -51 172
-162 169 -329 -1 -36 -5 -70 -11 -77 -5 -7 -7 -17 -3 -24 4 -6 2 -15 -6 -19
-7 -5 -18 -28 -24 -52 -6 -24 -19 -66 -27 -94 l-16 -52 81 85 c173 180 381
274 617 277 129 1 191 -7 287 -39 94 -32 162 -66 238 -120 65 -46 194 -177
225 -228 22 -36 24 -34 10 9 -5 16 -14 48 -20 72 -7 27 -15 40 -22 36 -7 -4
-8 -3 -4 5 9 14 -3 73 -13 66 -5 -2 -7 7 -5 20 1 14 -1 25 -6 25 -4 0 -6 9 -3
20 3 11 0 20 -6 20 -17 0 -14 135 5 205 20 79 57 140 102 170 36 24 145 57
292 90 192 43 391 182 505 355 103 156 163 312 206 540 6 30 13 57 16 60 3 3
3 -87 0 -200 -12 -460 -119 -669 -420 -825 -268 -139 -345 -199 -395 -306 -38
-81 -49 -142 -57 -303 -7 -147 -20 -256 -39 -320 -9 -30 -12 -82 -8 -171 9
-238 -41 -402 -177 -581 -110 -145 -257 -248 -431 -302 -410 -126 -849 60
-1042 443 -63 126 -88 225 -90 365 -2 89 6 193 16 209 3 5 0 35 -8 68 -17 68
-23 126 -36 328 -10 167 -27 230 -87 322 -43 65 -115 117 -295 213 -75 41
-166 95 -202 121 -212 156 -297 414 -286 869 2 85 2 85 25 -25z m-91 -524 c8
-41 19 -71 26 -71 4 0 14 -17 22 -38 25 -64 104 -174 178 -250 78 -79 135
-120 287 -205 111 -63 223 -147 265 -200 31 -40 68 -107 68 -124 0 -7 4 -13 8
-13 5 0 14 -11 20 -25 15 -32 16 -99 2 -90 -5 3 -10 1 -10 -4 0 -6 5 -11 10
-11 6 0 10 -16 10 -36 0 -32 -2 -35 -22 -28 -13 3 -30 13 -39 20 -8 8 -18 14
-21 14 -8 0 -532 300 -600 344 -70 45 -159 141 -192 208 -62 127 -84 332 -55
509 12 67 12 68 26 42 7 -15 15 -34 17 -42z m3736 -18 c16 -109 8 -307 -15
-383 -30 -97 -83 -186 -150 -248 -57 -54 -327 -219 -554 -340 -36 -19 -89 -49
-117 -67 -71 -45 -88 -48 -92 -11 -2 16 1 33 7 39 6 6 11 18 10 27 0 10 -3 9
-9 -5 -7 -16 -9 -13 -9 18 -1 20 3 45 7 55 87 179 165 257 375 374 193 108
303 202 397 338 51 75 100 172 93 183 -2 4 0 13 5 20 6 7 13 29 17 50 4 20 11
37 15 37 4 0 14 -39 20 -87z m-3505 -855 c141 -92 485 -258 571 -274 28 -5 36
-13 54 -59 24 -59 21 -75 -15 -75 -13 0 -27 -4 -30 -10 -3 -5 -14 -10 -23 -10
-14 0 -14 1 1 13 15 10 8 12 -40 10 -32 0 -98 3 -148 9 -49 5 -100 10 -112 11
-13 1 -23 6 -23 10 0 5 -4 6 -9 3 -13 -9 -158 54 -183 79 -36 36 -106 175
-138 276 -17 51 -30 94 -30 96 0 3 22 -11 125 -79z m3319 -29 c-42 -123 -103
-238 -144 -273 -53 -44 -225 -95 -328 -96 -18 0 -46 -7 -62 -15 -23 -12 -28
-12 -24 -2 3 10 -4 12 -31 9 -19 -2 -38 -8 -41 -13 -3 -5 -12 -9 -20 -9 -8 0
-12 5 -9 10 3 6 -1 10 -9 10 -9 0 -16 -4 -16 -10 0 -5 -7 -10 -16 -10 -8 0
-13 4 -9 9 3 6 -2 14 -11 19 -15 8 -15 13 3 62 l20 52 84 27 c114 37 434 197
550 275 52 35 95 62 97 61 1 -1 -14 -49 -34 -106z m-3017 -375 c-3 -3 -12 -4
-19 -1 -8 3 -5 6 6 6 11 1 17 -2 13 -5z m373 -4 c0 -5 -7 -10 -16 -10 -8 0
-12 5 -9 10 3 6 10 10 16 10 5 0 9 -4 9 -10z m-563 -31 c90 -34 221 -52 380
-51 115 1 164 -2 171 -11 6 -8 6 -42 0 -92 -8 -69 -6 -126 7 -197 4 -22 2 -22
-43 2 -20 10 -94 46 -163 79 -127 60 -216 120 -329 224 -67 60 -68 64 -23 46z
m2998 -35 c-22 -19 -83 -67 -135 -107 -90 -69 -141 -97 -325 -183 -44 -21 -83
-40 -88 -42 -4 -2 -4 3 -1 12 3 9 1 16 -5 16 -6 0 -11 -5 -11 -12 0 -6 -3 -8
-7 -5 -3 4 4 17 16 28 22 21 23 26 15 123 -8 112 -8 135 1 144 3 3 79 7 168 8
158 1 248 13 357 47 25 7 47 12 50 10 2 -2 -13 -20 -35 -39z"/>
<path d="M2348 2630 c-21 -4 -57 -15 -80 -25 -24 -9 -59 -24 -79 -32 -77 -32
-213 -138 -204 -160 2 -8 1 -12 -4 -9 -5 3 -14 -1 -21 -9 -7 -8 -9 -15 -4 -15
5 0 -1 -7 -13 -15 -11 -8 -31 -32 -43 -52 -19 -32 -19 -36 -4 -22 28 24 49 34
40 21 -15 -25 4 -9 90 76 70 69 107 96 174 130 313 154 663 64 859 -221 100
-146 137 -358 91 -525 -83 -299 -333 -495 -635 -497 -123 0 -209 18 -299 62
-214 106 -345 292 -379 540 -9 62 -15 83 -28 86 -13 3 -18 -4 -23 -32 -5 -30
-2 -39 17 -53 12 -9 18 -20 14 -25 -5 -4 -12 -1 -18 7 -20 32 15 -148 38 -193
7 -15 19 -25 24 -21 7 4 9 -1 4 -15 -4 -15 -1 -23 10 -27 9 -4 14 -13 11 -20
-3 -7 16 -41 42 -75 67 -88 67 -89 86 -89 9 0 15 -4 13 -9 -9 -32 188 -143
311 -176 80 -21 238 -21 330 0 83 19 208 79 284 136 186 137 302 417 268 641
-17 116 -43 193 -64 191 -14 -1 -17 5 -14 22 4 16 1 22 -9 18 -17 -6 -17 14 0
20 8 4 8 8 2 14 -5 4 -19 25 -29 46 -21 40 -94 119 -161 175 -38 31 -157 96
-179 97 -6 1 -29 9 -51 20 -53 24 -237 34 -262 14 -13 -11 -17 -11 -20 -1 -5
13 -27 14 -85 2z m-528 -800 c0 -5 -4 -10 -10 -10 -5 0 -10 5 -10 10 0 6 5 10
10 10 6 0 10 -4 10 -10z"/>
<path d="M2132 2343 c-16 -3 -21 -10 -18 -21 8 -27 67 -281 81 -352 8 -36 23
-104 34 -153 12 -48 28 -122 37 -165 9 -42 22 -92 29 -109 l14 -33 83 0 c46 0
89 4 96 9 14 8 29 63 77 276 14 66 42 185 60 265 55 239 63 280 57 280 -14 1
-137 2 -149 1 -7 -1 -16 -18 -21 -38 -15 -62 -52 -226 -57 -253 -14 -78 -49
-200 -55 -193 -4 4 -31 107 -60 228 -64 272 -59 255 -73 256 -33 3 -83 -4 -91
-12 -16 -15 -29 -10 -16 6 7 8 9 14 4 14 -5 -1 -19 -4 -32 -6z"/>
<path d="M2775 2339 c-16 -4 -23 -7 -15 -8 12 -1 12 -3 -2 -11 -15 -9 -17 -44
-17 -392 1 -223 5 -390 10 -400 8 -15 23 -18 78 -18 45 0 72 5 80 13 14 17 14
537 -1 537 -5 0 -6 6 -1 13 11 17 13 249 2 263 -10 12 -87 14 -134 3z"/>
<path d="M1803 2091 c-6 -28 -7 -48 -2 -46 9 6 23 84 16 91 -2 2 -9 -18 -14
-45z"/>
</g>
</svg>
